<svg width="510" height="510" viewBox="0 0 510 510" fill="none" xmlns="http://www.w3.org/2000/svg">
<mask id="mask0_14_564" style="mask-type:alpha" maskUnits="userSpaceOnUse" x="0" y="0" width="510" height="510">
<circle cx="255" cy="255" r="255" fill="#CED2FF"/>
</mask>
<g mask="url(#mask0_14_564)">
<circle cx="255" cy="255" r="255" fill="#CED2FF"/>
<path d="M-7.53794 265.903C179.481 372.856 288.293 256.031 334.832 242.6C374.462 231.163 419.473 274.536 457.32 258.136C493.171 242.6 509.303 220.493 505.121 175.68" stroke="white" stroke-dasharray="6 6"/>
<path d="M303.762 516.855C381.437 410.499 336.624 236.625 248.416 262.097C201.861 275.54 229.141 346.893 182.555 361.28C145.164 372.828 114.149 325.065 79.684 342.258C49.0116 357.559 35.387 383.666 40.3767 417.578" stroke="white" stroke-dasharray="6 6"/>
<path d="M463.427 101.678C322.338 186.121 259.03 -30.0304 177.577 40.8364C143.744 70.2726 167.087 130.001 154.344 166.999C142.687 200.842 99.9515 243.291 -0.226913 197.66" stroke="white" stroke-dasharray="6 6"/>
</g>
</svg>
